<svg width="32" height="32" viewBox="0 0 32 33" fill="#000" xmlns="http://www.w3.org/2000/svg">
<path fill-rule="evenodd" clip-rule="evenodd" d="M24.5251 8.15336L17.5755 5.17498C16.5693 4.74376 15.4304 4.74376 14.4242 5.17498L7.47461 8.15336C6.98437 8.36346 6.6665 8.84552 6.6665 9.37889V16.3827C6.6665 18.9664 7.91423 21.3909 10.0166 22.8926L14.4499 26.0592C15.3771 26.7215 16.6226 26.7215 17.5498 26.0592L21.9831 22.8926C24.0854 21.3909 25.3332 18.9664 25.3332 16.3827V9.37889C25.3332 8.84552 25.0153 8.36347 24.5251 8.15336ZM20.7807 13.1247C21.1257 12.6934 21.0558 12.0641 20.6245 11.7191C20.1933 11.3741 19.564 11.444 19.219 11.8753L14.5836 17.6695L12.7069 15.7929C12.3164 15.4024 11.6833 15.4024 11.2927 15.7929C10.9022 16.1834 10.9022 16.8166 11.2927 17.2071L13.5644 19.4788C14.1966 20.1109 15.2379 20.0533 15.7964 19.3551L20.7807 13.1247Z" fill="#263345"/>
</svg>
