<svg width="27" height="25" viewBox="0 0 27 25" fill="none" xmlns="http://www.w3.org/2000/svg">
<path fill-rule="evenodd" clip-rule="evenodd" d="M2.25 10.084C2.25 6.31275 2.25 4.42713 3.42157 3.25556C4.59315 2.08398 6.47876 2.08398 10.25 2.08398H16.75C20.5212 2.08398 22.4069 2.08398 23.5784 3.25556C24.75 4.42713 24.75 6.31275 24.75 10.084V14.9173C24.75 18.6886 24.75 20.5742 23.5784 21.7457C22.4069 22.9173 20.5212 22.9173 16.75 22.9173H10.25C6.47876 22.9173 4.59315 22.9173 3.42157 21.7457C2.25 20.5742 2.25 18.6886 2.25 14.9173V10.084ZM8.81168 17.1443C10.1646 16.1831 11.8126 15.668 13.5 15.668C15.1874 15.668 16.8354 16.1831 18.1883 17.1443C19.5424 18.1063 20.5302 19.466 20.9806 21.0224C21.1341 21.5529 20.8285 22.1074 20.298 22.2609C19.7675 22.4145 19.2129 22.1088 19.0594 21.5783C18.7406 20.4767 18.0336 19.4878 17.03 18.7747C16.0252 18.0609 14.7844 17.668 13.5 17.668C12.2156 17.668 10.9748 18.0609 9.97005 18.7747C8.96638 19.4878 8.25937 20.4767 7.94059 21.5783C7.78706 22.1088 7.23254 22.4145 6.70202 22.2609C6.1715 22.1074 5.86589 21.5529 6.01941 21.0224C6.46979 19.466 7.45764 18.1063 8.81168 17.1443ZM11.125 9.375C11.125 8.27247 12.1145 7.25 13.5 7.25C14.8855 7.25 15.875 8.27247 15.875 9.375C15.875 10.4775 14.8855 11.5 13.5 11.5C12.1145 11.5 11.125 10.4775 11.125 9.375ZM13.5 5.25C11.1576 5.25 9.125 7.02575 9.125 9.375C9.125 11.7243 11.1576 13.5 13.5 13.5C15.8424 13.5 17.875 11.7243 17.875 9.375C17.875 7.02575 15.8424 5.25 13.5 5.25Z" fill="#F0AA09"/>
<rect x="2.75" y="2.58398" width="21.5" height="19.8333" rx="3.5" stroke="#F0AA09"/>
</svg>
