<svg width="27" height="25" viewBox="0 0 22 21" fill="none" xmlns="http://www.w3.org/2000/svg">
<path fill-rule="evenodd" clip-rule="evenodd" d="M1.17157 1.79657C0 2.96815 0 4.85377 0 8.625V12.425C0 16.1962 0 18.0819 1.17157 19.2534C2.34315 20.425 4.22876 20.425 8 20.425H17.6C17.9714 20.425 18.1572 20.425 18.3138 20.4127C20.2753 20.2583 21.8333 18.7003 21.9877 16.7388C22 16.5822 22 16.3964 22 16.025H15.4C13.5775 16.025 12.1 14.5475 12.1 12.725C12.1 10.9025 13.5775 9.425 15.4 9.425H22V8.625C22 4.85376 22 2.96815 20.8284 1.79657C19.6569 0.625 17.7712 0.625 14 0.625H8C4.22876 0.625 2.34315 0.625 1.17157 1.79657ZM6 3.625C5.44772 3.625 5 4.07272 5 4.625C5 5.17728 5.44772 5.625 6 5.625H9C9.55228 5.625 10 5.17728 10 4.625C10 4.07272 9.55228 3.625 9 3.625H6Z" fill="#F0AA09"/>
<path d="M17.7998 12.6992H15.7998" stroke="#F0AA09" stroke-width="4" stroke-linecap="round"/>
</svg>
