<svg width="64" height="64" viewBox="0 0 64 64" fill="none" xmlns="http://www.w3.org/2000/svg">
<rect width="64" height="64" rx="13" fill="#35C7EC" fill-opacity="0.16"/>
<path d="M39.1328 31.2109C38.7422 30.8203 38.1562 30.8594 37.7656 31.2109L33.3125 35.9375V24.6875C33.3125 24.1797 32.8828 23.75 32.375 23.75H31.125C30.5781 23.75 30.1875 24.1797 30.1875 24.6875V35.9375L25.6953 31.2109C25.3047 30.8594 24.7188 30.8203 24.3281 31.2109L23.4688 32.0703C23.1172 32.4219 23.1172 33.0469 23.4688 33.3984L31.0859 40.9766C31.4375 41.3672 32.0234 41.3672 32.4141 40.9766L39.9922 33.3984C40.3438 33.0469 40.3438 32.4609 39.9922 32.0703L39.1328 31.2109Z" fill="white"/>
</svg>
