<svg width="24" height="27" viewBox="0 0 24 27" fill="none" xmlns="http://www.w3.org/2000/svg">
<path d="M16 6V5C16 2.79086 14.2091 1 12 1V1C9.79086 1 8 2.79086 8 5V6" stroke="white" stroke-width="2" stroke-linecap="round"/>
<path fill-rule="evenodd" clip-rule="evenodd" d="M3.87868 10.8787C3 11.7574 3 13.1716 3 16V17C3 20.7712 3 22.6569 4.17157 23.8284C5.34315 25 7.22876 25 11 25H13C16.7712 25 18.6569 25 19.8284 23.8284C21 22.6569 21 20.7712 21 17V16C21 13.1716 21 11.7574 20.1213 10.8787C19.2426 10 17.8284 10 15 10H9C6.17157 10 4.75736 10 3.87868 10.8787ZM12 18C12.5523 18 13 17.5523 13 17C13 16.4477 12.5523 16 12 16C11.4477 16 11 16.4477 11 17C11 17.5523 11.4477 18 12 18ZM15 17C15 18.3062 14.1652 19.4175 13 19.8293V22H11V19.8293C9.83481 19.4175 9 18.3062 9 17C9 15.3431 10.3431 14 12 14C13.6569 14 15 15.3431 15 17Z" fill="white"/>
<rect x="15" y="6" width="2" height="7" fill="white"/>
</svg>
